<?xml version="1.0" encoding="UTF-8"?>
<svg id="Layer_1" data-name="Layer 1" xmlns="http://www.w3.org/2000/svg" viewBox="0 0 519.81 547.17" width="308" height="308">
  <defs>
    <style>
      .cls-1 {
        fill: #2e148c;
      }

      .cls-2 {
        fill: #00a7e9;
      }

      .cls-3 {
        fill: #1c75bc;
      }
    </style>
  </defs>
  <g>
    <polygon class="cls-2" points="317.04 234.35 317.04 173.29 371.11 203.82 426.96 172.29 426.96 172.29 261.19 78.7 261.19 265.88 317.04 234.35"/>
    <polygon class="cls-1" points="371.11 203.82 371.11 238.57 317.04 238.57 317.04 234.35 261.19 265.88 261.19 453.05 317.04 421.52 317.04 294.39 382.43 384.1 426.08 359.47 370.23 293.18 426.96 293.18 426.96 172.29 371.11 203.82 371.11 203.82"/>
    <polygon class="cls-3" points="82.72 366.63 82.72 165.12 82.72 165.12 44.65 143.63 44.65 388.13 261.19 510.38 261.19 467.38 82.72 366.63"/>
    <polygon class="cls-3" points="261.19 64.37 261.19 21.38 44.65 143.63 82.72 165.12 261.19 64.37"/>
    <polygon class="cls-2" points="439.65 165.12 439.65 165.12 439.65 366.63 261.19 467.38 261.19 510.38 477.73 388.13 477.73 143.63 439.65 165.12"/>
    <polygon class="cls-2" points="439.65 165.12 477.73 143.63 261.19 21.38 261.19 64.37 439.65 165.12"/>
  </g>
  <g>
    <polygon class="cls-1" points="148.73 142.19 95.42 172.29 95.42 172.29 148.73 202.39 148.73 142.19"/>
    <polygon class="cls-1" points="202.8 111.66 202.8 232.92 261.19 265.88 261.19 142.37 261.19 78.7 202.8 111.66"/>
    <polygon class="cls-2" points="202.8 309.75 169.42 259.58 148.73 293.18 148.73 202.39 95.42 172.29 95.42 235.03 95.42 359.47 149.46 389.98 169.42 362.32 201.62 419.42 261.19 453.05 261.19 265.88 202.8 232.92 202.8 309.75"/>
  </g>
</svg>